<svg version="1.1" xmlns="http://www.w3.org/2000/svg" xmlns:xlink="http://www.w3.org/1999/xlink" x="0px" y="0px"
	 viewBox="0 0 1878 3949.6" style="enable-background:new 0 0 1878 3949.6;" xml:space="preserve">
<style type="text/css">
	.st0{fill:none;stroke:#000000;stroke-width:1px;}
</style>
<path class="st0" d="M0,0.5l220.4,5.2C826.8,20,1210.6,662.2,935.9,1203l0,0c-37.4,73.6-85.6,141.1-143,200.3L769,1428l-129,177.5
	l-204.4,353.4c-13.2,22.9-30.8,43-51.8,59l0,0c-142.2,109-82,335.5,95.6,359.5l161.4,21.8c23.1,3.1,45.6,9.2,67.1,18.1l108.3,44.9
	c121,50.2,231,123.8,323.7,216.5l98.1,98.1l308.7,340.4c110.2,121.5,188.8,268.3,228.9,427.4l101.9,404.7"/>
</svg>
