<svg version="1.1" xmlns="http://www.w3.org/2000/svg" xmlns:xlink="http://www.w3.org/1999/xlink" x="0px" y="0px"
	 viewBox="0 0 376.2 1396.4" style="enable-background:new 0 0 376.2 1396.4;" xml:space="preserve">
<style type="text/css">
	.st0{fill:none;stroke:#000000;stroke-width:1px;}
</style>
<path class="st0" d="M0.9,1018.9c101.3,104.6,202.3,204.6,308.3,308.6c10,11,20,21,30,32c13,12,25,25,36.6,36.6"/>
<path class="st0" d="M375.1,540.1c-1.8,2.4-3.8,3.4-4.8,5.4c-18,32-41,57-66,82c-1,1-3,1-4,2c-24,23-49,41-78,58c-5,3-9,6-14,9
	c-2,1-2,3-4,4c-14,6-26,13-40,19c-2,1-3,0-5,1c-16,8-32,13-49,18c-26,9-53,11-80,18c-11,3-21,6-30,11.8"/>
<path class="st0" d="M0.2,7.8c29.9-1.4,59.7-5.1,89.6-6.7c29.7-1.5,58.9-0.3,88.1,5.8c27.4,5.8,54,14.8,79.3,26.8
	c5.9,2.8,13.9,5.5,18.6,10.2c4.1,4.1,10.4,6.6,15.3,9.6c10,6.2,19.6,13,28.9,20.3c18.3,14.4,35,30.8,49.7,48.8
	c1.8,2.2,3.6,4.4,5.3,6.7"/>
</svg>
