<?xml version="1.0" encoding="utf-8"?>
<!-- Generator: Adobe Illustrator 24.3.0, SVG Export Plug-In . SVG Version: 6.00 Build 0)  -->
<svg version="1.1" id="Слой_1" xmlns="http://www.w3.org/2000/svg" xmlns:xlink="http://www.w3.org/1999/xlink" x="0px" y="0px"
	 viewBox="0 0 1728 1443" style="enable-background:new 0 0 1728 1443;" xml:space="preserve">
<style type="text/css">
	.st0{fill:none;stroke:#000000;}
</style>
<path class="st0" d="M1728.4,6.7C1705,8,1683,11,1660,14c-5,0-10,1-15,1c-3,0-7,2-10,2c-8,0-16,1-24,2c-59,8-115,16-175,24
	c-5,1-9,2-14,3c-49,7-94,15-142,27c-15,3-30,5-45,10c-13,4-26,8-38,13c-8,3-15,8-24,10c-3,1-5,4-7,5c-21,10-38,24-58,38
	c-5,4-8,8-13,11c-19,16-35,33-51,53c-9,12-17,24-25,37c-8,14-16,26-23,40c-29,58-44,117-58,182c0,1-2,3-2,4c-17,76-30,144-46,221
	c-1,4-2,8-3,12c-4,22-6,42-9,64c-1,5-2,9-3,14c-10,80-19,155-36,235c0,1-2,3-2,4c-4,21-8,40-18,59c-5,11-9,23-14,34
	c-9,19-20,36-32,54c-10,14-20,25-30,38c-3,3-6,6-9,9c-2,2-3,5-5,7c-9,9-19,18-28,27c-1,1-3,1-4,2c-18,16-37,31-59,42c-1,1-2,2-3,3
	c-11,5-21,12-31,18c-117,66-248,64-377,77c-15,2-29,3-44,5c-43,3-86,8-129,11c-18,2-36,3-54.1,5.7"/>
</svg>
