<svg version="1.1" xmlns="http://www.w3.org/2000/svg" xmlns:xlink="http://www.w3.org/1999/xlink" x="0px" y="0px"
	 viewBox="0 0 1728 1443" style="enable-background:new 0 0 1728 1443;" xml:space="preserve">
<style type="text/css">
	.st0{fill:none;stroke:#000000;stroke-width:1px;}
</style>
<path class="st0" d="M1727.3,7.5C1676,12,1625,20,1573,25c-2,0-5,2-7,2c-14,1-28,3-42,5c-5,0-10,1-15,1c-68,9-131,19-199,31
	c-22,4-42,9-63,14c-16,5-32,10-47,16c-53,23-99,54-138,98c-1,1-1,3-2,4c-37,40-62,86-83,135c-1,2,0,3-1,5c-7,13-9,26-13,40
	c-17,61-31,118-44,181c-1,3-2,6-3,9c-16,77-30,147-42,224c0,4-1,9-1,13c0,3-2,5-2,8c0,12-3,23-4,35c-2,11-3,23-4,34c0,3-2,6-2,9
	c-8,68-17,135-43,199c-8,20-16,39-28,58c-16,26-32,50-54,72c-15,16-29,31-46,45c-11,8-21,16-33,24c-41,28-80,48-125,64
	c-28,9-55,16-85,22c-25,5-48,7-72,10c-126,11-250,24-374.8,34.4"/>
</svg>
