<?xml version="1.0" encoding="utf-8"?>
<!-- Generator: Adobe Illustrator 24.3.0, SVG Export Plug-In . SVG Version: 6.00 Build 0)  -->
<svg version="1.1" id="Слой_1" xmlns="http://www.w3.org/2000/svg" xmlns:xlink="http://www.w3.org/1999/xlink" x="0px" y="0px"
	 viewBox="0 0 1808.1 1420.5" style="enable-background:new 0 0 1808.1 1420.5;" xml:space="preserve">
<style type="text/css">
	.st0{fill:none;stroke:#000000;}
</style>
<path class="st0" d="M1808,0.5c-108.5,11-214.5,22-325.5,40c-18,3-34,8-51,12c-43,13-81,28-120,51c-48,28-88,60-126,100
	c-79,84-128,183-158,293c-2,6-2,12-4,18c-18,62-31,122-48,185c-4,16-7,31-10,47c0,1-2,3-2,4c-6,31-14,59-17,89c-21,81-43,160-70,240
	c-2,4-4,9-6,13c-1,2,0,3-1,5c-14,32-29,60-50,89c-17,23-35,42-55,61c-78,72-176,112-281,124c-11,1-23,2-34,3c-7,0-15,1-22,1
	c-4,1-9,1-13,2c-12,1-25,2-37,3c-8,0-16,1-24,2c-3,0-6,0-9,0c-5,1-10,1-15,2c-3,0-6,0-9,0c-13,2-25,2-38,3c-5,1-9,1-14,2
	c-3,0-7-1-10,0c-5,1-9,1-14,2c-3,0-7-1-10,0c-5,1-9,1-14,2c-3,0-6,0-9,0c-13,2-25,2-38,3c-4,1-9,1-13,2c-8,1-16,1-24,2c-3,0-6,0-9,0
	c-8,1-16,2-24,2c-13,1-25,2-38,3c-11,1-21,2-32,3c-12,2-23,6-33.3,11.6"/>
</svg>
