<svg version="1.1"  xmlns="http://www.w3.org/2000/svg" xmlns:xlink="http://www.w3.org/1999/xlink" x="0px" y="0px"
	 viewBox="0 0 1728 3942" style="enable-background:new 0 0 1728 3942;" xml:space="preserve">
<style type="text/css">
	.st0{fill:none;stroke:#000000;stroke-width:1px;}
</style>
<path class="st0" d="M-0.3,15.6C44,22,87,31,132,41c5,1,10,2,15,2c31,6,58,12,89,19c1,0,3,2,4,2c22,5,41,12,61,20c13,4,25,8,38,12
	c3,1,5,3,8,4c2,1,3,0,5,1c3,1,5,3,8,4c2,1,3,0,5,1c24,11,48,20,71,33c13,8,26,13,38,22c2,1,3,1,5,2c7,4,13,8,20,12
	c57,38,107,73,152,122c1,1,3,1,4,2c104,102,183,220,230,356c1,3,3,5,4,8c6,19,12,36,16,56c0,2,2,6,3,8c2,4,1,9,3,13c1,3,3,7,4,10
	c9,31,13,61,18,93c3,21,5,42,7,63c2,20,2,40,3,60c3,51-6,100-11,150c-17,97-45,191-89,280c-8,16-16,32-24,48c-1,3-4,5-6,7
	c-24,38-40,75-66,113c-35,51-67,95-108,139c-1,1,0,2-1,3c-95,94-183,183-279,276c-2,2-4,2-6,4s-3,4-5,6c-22,17-41,34-60,54
	c-2,2-3,5-5,7c-20,19-34,41-48,65c-1,1-2,1-3,2c-19,36-34,70-44,110c-4,18-8,34-10,52c-7,70,0,140,27,205c1,2,0,3,1,5s3,4,4,7
	c2,9,5,17,9,25c3,10,8,19,14,28c17,26,32,49,53,71c44,45,91,81,138,123c5,4,7,9,12,13c25,21,48,39,73,60c1,1,2,3,3,4
	c9,7,16,14,25,21c2,2,3,4,5,6c5,3,9,7,13,11c1,1,3,1,4,2c4,3,6,7,10,10c18,14,33,28,49,43c23,20,44,39,66,60c6,5,12,7,18,12
	s11,10,17,15c1,1,2,3,3,4c5,4,10,8,15,12c1,1,2,3,3,4c5,4,10,8,15,12c1,1,2,3,3,4c12,11,25,19,36,32c6,7,15,11,22,18
	c18,17,35,33,55,48c1,1,2,3,3,4c9,7,17,14,26,21c1,1,2,3,3,4c8,7,17,13,25,20c22,22,44,40,67,61c25,21,50,40,72,63
	c17,11,30,25,45,38c6,6,11,11,17,17c14,11,26,22,40,34c3,2,6,4,9,6c1,1,0,2,1,3c12,13,26,22,38,34c6,5,11,9,18,13c2,1,3,3,4,5
	c8,6,15,12,23,19c33,29,65,59,99,86c12,14,28,23,41,36c6,7,14,13,21,19c1,1,2,3,3,4c8,6,14,12,21,19c4,3,7,6,11,9c1,1,2,3,3,4
	c35,29,66,56,100,87c5,3,10,6,14,9c35,30,63,61,100,89c1,1,2,3,3,4c18,14,34,27,50.3,43"/>
</svg>
