<?xml version="1.0" encoding="utf-8"?>
<!-- Generator: Adobe Illustrator 24.3.0, SVG Export Plug-In . SVG Version: 6.00 Build 0)  -->
<svg version="1.1" id="Слой_1" xmlns="http://www.w3.org/2000/svg" xmlns:xlink="http://www.w3.org/1999/xlink" x="0px" y="0px"
	 viewBox="0 0 376.2 1338.7" style="enable-background:new 0 0 376.2 1338.7;" xml:space="preserve">
<style type="text/css">
	.st0{fill:none;stroke:#000000;}
</style>
<path class="st0" d="M0.4,905.5c2.8,3,4.8,6.7,7.6,9.7c2.9,3.1,5.6,5.5,7.6,9.2c2,3.6,4.9,6.4,7.6,9.4c3,3.3,5.7,6.9,8.5,10.3
	c5.6,6.7,12.8,11.9,18,18.9c5.3,7.2,10.8,14,16.8,20.6c25.7,28.3,50.5,57.4,75.4,86.4c12,14,23.5,29.2,37.3,41.5
	c6.7,6,12.4,13.6,18.2,20.5c5.9,7.1,11.8,14.3,17.8,21.4c24.7,29.3,50.1,58,75.3,86.9c25.4,29,50.9,58.1,76.1,87.2
	c3.1,3.6,6.2,7.2,9.3,10.7"/>
<path class="st0" d="M1,1.8c22.4-1.2,44.4-2.2,66.4-0.2c30,2,59,6,87,18c4,2,9,1,13,3c15,7,30,13,44,24c3,2,5,2,8,4
	c11,8,21,14,31,23c8,8,16,15,24,23c19,20,31,41,47,64c6,9,8,19,13,29c14,30,18,62,24,95c2,17,2,33,0,50c-1,20-2,41-11,60
	c-5,27-15,52-33,75c-56,75-106,141-164,214c-4,5-7,10-11,16c-3,5-8,11-13,15c-1,1-3,1-4,2c-12,12-26,19-41,24c-19,6-38,7-58,12
	c-8,2-15,5-23,7.2"/>
</svg>
